<svg width="200" height="200" viewBox="0 0 200 200" fill="none" xmlns="http://www.w3.org/2000/svg">
  <!-- Body -->
  <path d="M80 120C80 97.9086 97.9086 80 120 80H160C171.046 80 180 88.9543 180 100V140C180 162.091 162.091 180 140 180H100C88.9543 180 80 171.046 80 160V120Z" fill="white"/>
  
  <!-- Head -->
  <path d="M120 40C120 28.9543 128.954 20 140 20H160C171.046 20 180 28.9543 180 40V80C180 91.0457 171.046 100 160 100H140C128.954 100 120 91.0457 120 80V40Z" fill="white"/>
  
  <!-- Ear -->
  <path d="M160 20C160 8.95431 168.954 0 180 0V40C180 51.0457 171.046 60 160 60V20Z" fill="#1E3A8A"/>
  
  <!-- Tail -->
  <path d="M80 140C80 128.954 71.0457 120 60 120V160C60 171.046 68.9543 180 80 180V140Z" fill="#1E3A8A"/>
  
  <!-- Leg -->
  <rect x="100" y="180" width="20" height="20" fill="white"/>
  
  <!-- Leg -->
  <rect x="140" y="180" width="20" height="20" fill="white"/>
  
  <!-- Eye -->
  <circle cx="150" cy="50" r="5" fill="#111827"/>
  
  <!-- Nose -->
  <circle cx="170" cy="70" r="10" fill="#111827"/>
</svg>

